<?xml version="1.0" encoding="UTF-8"?>
<!-- Created with Inkscape (http://www.inkscape.org/) -->
<svg width="300" height="264.85" version="1.1" viewBox="0 0 300 264.85" xml:space="preserve" xmlns="http://www.w3.org/2000/svg" xmlns:cc="http://creativecommons.org/ns#" xmlns:dc="http://purl.org/dc/elements/1.1/" xmlns:rdf="http://www.w3.org/1999/02/22-rdf-syntax-ns#"><metadata><rdf:RDF><cc:Work rdf:about=""><dc:format>image/svg+xml</dc:format><dc:type rdf:resource="http://purl.org/dc/dcmitype/StillImage"/><dc:title/></cc:Work></rdf:RDF></metadata><g transform="matrix(1.3333 0 0 -1.3333 -622.74 579.44)"><g transform="matrix(2.634 0 0 2.634 -760.79 -383.43)" fill-rule="evenodd"><path d="m486.53 308.2h45.055c1.6668 0 3.03-1.3632 3.03-3.03v-45.714c0-1.6668-1.3632-3.03-3.03-3.03h-45.055c-1.6662 0-3.0296 1.3632-3.0296 3.03v45.714c0 1.6668 1.3634 3.03 3.0296 3.03" fill="#fefefe"/><g fill="#323c79"><path d="m485.61 309.75h45.817c6.0353 0 10.973-6.1506 10.973-13.668v-27.336c0-7.5178-4.9379-13.668-10.973-13.668h-45.817c-6.0352 0-10.973 6.1506-10.973 13.668v27.336c0 7.5178 4.938 13.668 10.973 13.668zm11.953-10.61c5.1852-11.652 4.1449-26.54-0.371-38.23-4.1046 2.1486-7.7159 5.161-9.8654 8.7862-1.4038 2.3548-2.3724 4.8997-2.943 7.8656 2.1677 0.2248 3.4217 0.3864 5.5968 0.5556 0.585-4.2554 3.3845-8.2995 4.4676-9.6043 3.4226 7.6796 2.539 21.58-0.0419 29.787 0.519 0.1332 1.9403 0.6511 2.9701 0.7982zm12.546 8.5141c1.8445 0 3.3488-1.5046 3.3488-3.3491s-1.5043-3.3491-3.3488-3.3491c-1.8448 0-3.3492 1.5046-3.3492 3.3491s1.5044 3.3491 3.3492 3.3491zm-0.2478-8.9124c4.055-12.257 3.581-28.066 0.0366-40.31-4.3747 12.333-4.915 28.034-0.0366 40.31zm20.86-0.8926c-3.4475-2.3284-7.4253-4.4394-7.4253-9.0462 0-5.9962 6.4335-10.55 6.4335-16.795 0-5.7923-5.283-8.9385-10.298-10.493l-0.5874 3.0042c3.4722 1.6324 4.6849 3.8177 4.6849 7.7337 0 7.3843-7.0183 10.031-7.0183 17.189 0 5.8825 8.2502 9.159 12.711 10.868z"/><path d="m467.19 252.15h83.33v-1.0568h-83.33z"/><path d="m472.12 248.08v-6.6923h3.9481v6.6923h1.3811v-6.2957c0-0.7532-0.1021-1.2671-0.3039-1.5387-0.2041-0.2741-0.5944-0.4099-1.1733-0.4099h-3.7616c-0.5751 0-0.9654 0.1358-1.1692 0.4099-0.2058 0.2716-0.3079 0.7855-0.3079 1.5387v6.2957z"/><path d="m493.41 248.1 1.8627-6.6713 2.1064 6.6713h1.3807l-2.6625-8.2454-1.715-0.0196-2.3587 8.265z"/><path d="m488.49 239.86v8.244h1.3867v-8.244z"/><path d="m480.98 239.83v5.7892l3.9484-5.7892h1.3808v6.2955l0.0269 1.9488-1.4964-7e-3 -0.0374-5.4956-3.7225 5.4811-1.4802-6e-3 -6e-3 -8.2176h1.3864z"/><path d="m523.81 246.65h-3.8983v-1.7703h3.7117c0.5828 0 0.9771-0.1383 1.1809-0.4127 0.2058-0.2766 0.3079-0.7877 0.3079-1.5386v-1.1311c0-0.7483-0.1021-1.2591-0.3079-1.5361-0.2038-0.2741-0.5981-0.4127-1.1809-0.4127h-3.6771c-0.5825 0-0.9768 0.1386-1.1806 0.4127-0.2058 0.277-0.3078 0.7878-0.3078 1.5361v0.226l1.2231 0.3515v-0.9743h4.208v1.8794h-3.7116c-0.5792 0-0.9695 0.1383-1.1733 0.4124-0.2018 0.2769-0.3039 0.788-0.3039 1.5389v0.9102c0 0.7509 0.1021 1.262 0.3039 1.5387 0.2038 0.2744 0.5941 0.4127 1.1733 0.4127h3.3789c0.5595 0 0.9462-0.1332 1.1576-0.3968 0.2135-0.2659 0.3192-0.7371 0.3192-1.4134v-0.1704l-1.2231-0.3994z"/><path d="m500.91 239.86v8.244h6.1806v-1.3864h-4.7942v-2.0421h4.5828v-1.3867h-4.5828v-2.0421h4.7942v-1.3867h-6.0001z"/><path d="m509.24 239.84v8.2443h5.0944c0.4731 0 0.8152-0.1253 1.0287-0.3782 0.2117-0.2528 0.3175-0.6599 0.3175-1.2192v-1.9377c0-0.5565-0.1058-0.9612-0.3175-1.2138-0.2135-0.2557-0.5556-0.3835-1.0287-0.3835h-0.777l2.7482-3.1119h-1.9885l-2.4001 3.1119h-1.3136v-3.1119zm4.481 6.8176h-3.1176v-2.2949h3.1176c0.2404 0 0.4036 0.0482 0.4921 0.144 0.0884 0.0958 0.1326 0.2661 0.1326 0.5111v0.9926c0 0.2399-0.0442 0.4074-0.1326 0.5032-0.0885 0.0958-0.2517 0.144-0.4921 0.144"/><path d="m527.26 239.84v8.2443h1.3867v-8.2443z"/><path d="m530.79 248.08h7.5742v-1.3867h-3.0941v-6.9112h-1.3864v6.9112h-3.0937z"/><path d="m541.52 248.11 1.9403-3.7224h0.0377l1.9403 3.7224 1.546-0.0212-2.736-5.2124-0.0108-2e-4v-3.0873h-1.5165v3.0742l-2.7471 5.2257z"/><path d="m467.06 237h83.608v-1.0567h-83.608z"/></g></g></g></svg>
